<svg xmlns="http://www.w3.org/2000/svg" style="display: none;">
  <!-- Navigation Icons -->
  <symbol id="search" viewBox="0 0 24 24" fill="none" stroke="currentColor" stroke-width="2">
    <circle cx="11" cy="11" r="8"/>
    <path d="m21 21-4.35-4.35"/>
  </symbol>
  
  <symbol id="menu" viewBox="0 0 24 24" fill="none" stroke="currentColor" stroke-width="2">
    <line x1="3" y1="6" x2="21" y2="6"/>
    <line x1="3" y1="12" x2="21" y2="12"/>
    <line x1="3" y1="18" x2="21" y2="18"/>
  </symbol>
  
  <symbol id="x" viewBox="0 0 24 24" fill="none" stroke="currentColor" stroke-width="2">
    <line x1="18" y1="6" x2="6" y2="18"/>
    <line x1="6" y1="6" x2="18" y2="18"/>
  </symbol>
  
  <!-- Theme Icons -->
  <symbol id="sun" viewBox="0 0 24 24" fill="none" stroke="currentColor" stroke-width="2">
    <circle cx="12" cy="12" r="5"/>
    <line x1="12" y1="1" x2="12" y2="3"/>
    <line x1="12" y1="21" x2="12" y2="23"/>
    <line x1="4.22" y1="4.22" x2="5.64" y2="5.64"/>
    <line x1="18.36" y1="18.36" x2="19.78" y2="19.78"/>
    <line x1="1" y1="12" x2="3" y2="12"/>
    <line x1="21" y1="12" x2="23" y2="12"/>
    <line x1="4.22" y1="19.78" x2="5.64" y2="18.36"/>
    <line x1="18.36" y1="5.64" x2="19.78" y2="4.22"/>
  </symbol>
  
  <symbol id="moon" viewBox="0 0 24 24" fill="none" stroke="currentColor" stroke-width="2">
    <path d="M21 12.79A9 9 0 1 1 11.21 3 7 7 0 0 0 21 12.79z"/>
  </symbol>
  
  <!-- Language Icons -->
  <symbol id="globe" viewBox="0 0 24 24" fill="none" stroke="currentColor" stroke-width="2">
    <circle cx="12" cy="12" r="10"/>
    <line x1="2" y1="12" x2="22" y2="12"/>
    <path d="M12 2a15.3 15.3 0 0 1 4 10 15.3 15.3 0 0 1-4 10 15.3 15.3 0 0 1-4-10 15.3 15.3 0 0 1 4-10z"/>
  </symbol>
  
  <!-- Mission Icons -->
  <symbol id="tech" viewBox="0 0 24 24" fill="none" stroke="currentColor" stroke-width="2">
    <rect x="2" y="3" width="20" height="14" rx="2" ry="2"/>
    <line x1="8" y1="21" x2="16" y2="21"/>
    <line x1="12" y1="17" x2="12" y2="21"/>
  </symbol>
  
  <symbol id="leadership" viewBox="0 0 24 24" fill="none" stroke="currentColor" stroke-width="2">
    <path d="M16 21v-2a4 4 0 0 0-4-4H5a4 4 0 0 0-4 4v2"/>
    <circle cx="8.5" cy="7" r="4"/>
    <line x1="20" y1="8" x2="20" y2="14"/>
    <line x1="23" y1="11" x2="17" y2="11"/>
  </symbol>
  
  <symbol id="environment" viewBox="0 0 24 24" fill="none" stroke="currentColor" stroke-width="2">
    <path d="M12 22c5.523 0 10-4.477 10-10S17.523 2 12 2 2 6.477 2 12s4.477 10 10 10z"/>
    <path d="M8 14s1.5 2 4 2 4-2 4-2"/>
    <line x1="9" y1="9" x2="9.01" y2="9"/>
    <line x1="15" y1="9" x2="15.01" y2="9"/>
  </symbol>
  
  <symbol id="mental-health" viewBox="0 0 24 24" fill="none" stroke="currentColor" stroke-width="2">
    <path d="M20.84 4.61a5.5 5.5 0 0 0-7.78 0L12 5.67l-1.06-1.06a5.5 5.5 0 0 0-7.78 7.78l1.06 1.06L12 21.23l7.78-7.78 1.06-1.06a5.5 5.5 0 0 0 0-7.78z"/>
  </symbol>
  
  <!-- Programme Icons -->
  <symbol id="code" viewBox="0 0 24 24" fill="none" stroke="currentColor" stroke-width="2">
    <polyline points="16,18 22,12 16,6"/>
    <polyline points="8,6 2,12 8,18"/>
  </symbol>
  
  <symbol id="monitor" viewBox="0 0 24 24" fill="none" stroke="currentColor" stroke-width="2">
    <rect x="2" y="3" width="20" height="14" rx="2" ry="2"/>
    <line x1="8" y1="21" x2="16" y2="21"/>
    <line x1="12" y1="17" x2="12" y2="21"/>
  </symbol>
  
  <symbol id="leaf" viewBox="0 0 24 24" fill="none" stroke="currentColor" stroke-width="2">
    <path d="M11 20A7 7 0 0 1 9.8 6.1C15.5 5 17 4.48 19 2c1 2 2 4.18 2 8 0 5.5-4.78 10-10 10Z"/>
    <path d="M2 21c0-3 1.85-5.36 5.08-6C9.5 14.52 12 13 13 12"/>
  </symbol>
  
  <symbol id="heart" viewBox="0 0 24 24" fill="none" stroke="currentColor" stroke-width="2">
    <path d="M20.84 4.61a5.5 5.5 0 0 0-7.78 0L12 5.67l-1.06-1.06a5.5 5.5 0 0 0-7.78 7.78l1.06 1.06L12 21.23l7.78-7.78 1.06-1.06a5.5 5.5 0 0 0 0-7.78z"/>
  </symbol>
  
  <symbol id="users" viewBox="0 0 24 24" fill="none" stroke="currentColor" stroke-width="2">
    <path d="M16 21v-2a4 4 0 0 0-4-4H5a4 4 0 0 0-4 4v2"/>
    <circle cx="8.5" cy="7" r="4"/>
    <path d="M20 8v6M23 11h-6"/>
  </symbol>
  
  <!-- Social Media Icons -->
  <symbol id="facebook" viewBox="0 0 24 24" fill="currentColor">
    <path d="M24 12.073c0-6.627-5.373-12-12-12s-12 5.373-12 12c0 5.99 4.388 10.954 10.125 11.854v-8.385H7.078v-3.47h3.047V9.43c0-3.007 1.792-4.669 4.533-4.669 1.312 0 2.686.235 2.686.235v2.953H15.83c-1.491 0-1.956.925-1.956 1.874v2.25h3.328l-.532 3.47h-2.796v8.385C19.612 23.027 24 18.062 24 12.073z"/>
  </symbol>
  
  <symbol id="twitter" viewBox="0 0 24 24" fill="currentColor">
    <path d="M23.953 4.57a10 10 0 01-2.825.775 4.958 4.958 0 002.163-2.723c-.951.555-2.005.959-3.127 1.184a4.92 4.92 0 00-8.384 4.482C7.69 8.095 4.067 6.13 1.64 3.162a4.822 4.822 0 00-.666 2.475c0 1.71.87 3.213 2.188 4.096a4.904 4.904 0 01-2.228-.616v.06a4.923 4.923 0 003.946 4.827 4.996 4.996 0 01-2.212.085 4.936 4.936 0 004.604 3.417 9.867 9.867 0 01-6.102 2.105c-.39 0-.779-.023-1.17-.067a13.995 13.995 0 007.557 2.209c9.053 0 13.998-7.496 13.998-13.985 0-.21 0-.42-.015-.63A9.935 9.935 0 0024 4.59z"/>
  </symbol>
  
  <symbol id="linkedin" viewBox="0 0 24 24" fill="currentColor">
    <path d="M20.447 20.452h-3.554v-5.569c0-1.328-.027-3.037-1.852-3.037-1.853 0-2.136 1.445-2.136 2.939v5.667H9.351V9h3.414v1.561h.046c.477-.9 1.637-1.85 3.37-1.85 3.601 0 4.267 2.37 4.267 5.455v6.286zM5.337 7.433c-1.144 0-2.063-.926-2.063-2.065 0-1.138.92-2.063 2.063-2.063 1.14 0 2.064.925 2.064 2.063 0 1.139-.925 2.065-2.064 2.065zm1.782 13.019H3.555V9h3.564v11.452zM22.225 0H1.771C.792 0 0 .774 0 1.729v20.542C0 23.227.792 24 1.771 24h20.451C23.2 24 24 23.227 24 22.271V1.729C24 .774 23.2 0 22.222 0h.003z"/>
  </symbol>
  
  <symbol id="youtube" viewBox="0 0 24 24" fill="currentColor">
    <path d="M23.498 6.186a3.016 3.016 0 0 0-2.122-2.136C19.505 3.545 12 3.545 12 3.545s-7.505 0-9.377.505A3.017 3.017 0 0 0 .502 6.186C0 8.07 0 12 0 12s0 3.93.502 5.814a3.016 3.016 0 0 0 2.122 2.136c1.871.505 9.376.505 9.376.505s7.505 0 9.377-.505a3.015 3.015 0 0 0 2.122-2.136C24 15.93 24 12 24 12s0-3.93-.502-5.814zM9.545 15.568V8.432L15.818 12l-6.273 3.568z"/>
  </symbol>
  
  <symbol id="instagram" viewBox="0 0 24 24" fill="currentColor">
    <path d="M12 2.163c3.204 0 3.584.012 4.85.07 3.252.148 4.771 1.691 4.919 4.919.058 1.265.069 1.645.069 4.849 0 3.205-.012 3.584-.069 4.849-.149 3.225-1.664 4.771-4.919 4.919-1.266.058-1.644.07-4.85.07-3.204 0-3.584-.012-4.849-.07-3.26-.149-4.771-1.699-4.919-4.92-.058-1.265-.07-1.644-.07-4.849 0-3.204.013-3.583.07-4.849.149-3.227 1.664-4.771 4.919-4.919 1.266-.057 1.645-.069 4.849-.069zm0-2.163c-3.259 0-3.667.014-4.947.072-4.358.2-6.78 2.618-6.98 6.98-.059 1.281-.073 1.689-.073 4.948 0 3.259.014 3.668.072 4.948.2 4.358 2.618 6.78 6.98 6.98 1.281.058 1.689.072 4.948.072 3.259 0 3.668-.014 4.948-.072 4.354-.2 6.782-2.618 6.979-6.98.059-1.28.073-1.689.073-4.948 0-3.259-.014-3.667-.072-4.947-.196-4.354-2.617-6.78-6.979-6.98-1.281-.059-1.69-.073-4.949-.073zm0 5.838c-3.403 0-6.162 2.759-6.162 6.162s2.759 6.163 6.162 6.163 6.162-2.759 6.162-6.163c0-3.403-2.759-6.162-6.162-6.162zm0 10.162c-2.209 0-4-1.79-4-4 0-2.209 1.791-4 4-4s4 1.791 4 4c0 2.21-1.791 4-4 4zm6.406-11.845c-.796 0-1.441.645-1.441 1.44s.645 1.44 1.441 1.44c.795 0 1.439-.645 1.439-1.44s-.644-1.44-1.439-1.44z"/>
  </symbol>
  
  <!-- Contact Icons -->
  <symbol id="mail" viewBox="0 0 24 24" fill="none" stroke="currentColor" stroke-width="2">
    <path d="M4 4h16c1.1 0 2 .9 2 2v12c0 1.1-.9 2-2 2H4c-1.1 0-2-.9-2-2V6c0-1.1.9-2 2-2z"/>
    <polyline points="22,6 12,13 2,6"/>
  </symbol>
  
  <symbol id="phone" viewBox="0 0 24 24" fill="none" stroke="currentColor" stroke-width="2">
    <path d="M22 16.92v3a2 2 0 0 1-2.18 2 19.79 19.79 0 0 1-8.63-3.07 19.5 19.5 0 0 1-6-6 19.79 19.79 0 0 1-3.07-8.67A2 2 0 0 1 4.11 2h3a2 2 0 0 1 2 1.72 12.84 12.84 0 0 0 .7 2.81 2 2 0 0 1-.45 2.11L8.09 9.91a16 16 0 0 0 6 6l1.27-1.27a2 2 0 0 1 2.11-.45 12.84 12.84 0 0 0 2.81.7A2 2 0 0 1 22 16.92z"/>
  </symbol>
  
  <symbol id="location" viewBox="0 0 24 24" fill="none" stroke="currentColor" stroke-width="2">
    <path d="M21 10c0 7-9 13-9 13s-9-6-9-13a9 9 0 0 1 18 0z"/>
    <circle cx="12" cy="10" r="3"/>
  </symbol>
  
  <symbol id="message-circle" viewBox="0 0 24 24" fill="none" stroke="currentColor" stroke-width="2">
    <path d="M21 11.5a8.38 8.38 0 0 1-.9 3.8 8.5 8.5 0 0 1-7.6 4.7 8.38 8.38 0 0 1-3.8-.9L3 21l1.9-5.7a8.38 8.38 0 0 1-.9-3.8 8.5 8.5 0 0 1 4.7-7.6 8.38 8.38 0 0 1 3.8-.9h.5a8.48 8.48 0 0 1 8 8v.5z"/>
  </symbol>
  
  <!-- UI Icons -->
  <symbol id="chevron-down" viewBox="0 0 24 24" fill="none" stroke="currentColor" stroke-width="2">
    <polyline points="6,9 12,15 18,9"/>
  </symbol>
  
  <symbol id="chevron-up" viewBox="0 0 24 24" fill="none" stroke="currentColor" stroke-width="2">
    <polyline points="18,15 12,9 6,15"/>
  </symbol>
  
  <symbol id="chevron-left" viewBox="0 0 24 24" fill="none" stroke="currentColor" stroke-width="2">
    <polyline points="15,18 9,12 15,6"/>
  </symbol>
  
  <symbol id="chevron-right" viewBox="0 0 24 24" fill="none" stroke="currentColor" stroke-width="2">
    <polyline points="9,18 15,12 9,6"/>
  </symbol>
  
  <symbol id="arrow-right" viewBox="0 0 24 24" fill="none" stroke="currentColor" stroke-width="2">
    <line x1="5" y1="12" x2="19" y2="12"/>
    <polyline points="12,5 19,12 12,19"/>
  </symbol>
  
  <symbol id="arrow-up" viewBox="0 0 24 24" fill="none" stroke="currentColor" stroke-width="2">
    <line x1="12" y1="19" x2="12" y2="5"/>
    <polyline points="5,12 12,5 19,12"/>
  </symbol>
  
  <!-- Status Icons -->
  <symbol id="check-circle" viewBox="0 0 24 24" fill="none" stroke="currentColor" stroke-width="2">
    <path d="M22 11.08V12a10 10 0 1 1-5.93-9.14"/>
    <polyline points="22,4 12,14.01 9,11.01"/>
  </symbol>
  
  <symbol id="x-circle" viewBox="0 0 24 24" fill="none" stroke="currentColor" stroke-width="2">
    <circle cx="12" cy="12" r="10"/>
    <line x1="15" y1="9" x2="9" y2="15"/>
    <line x1="9" y1="9" x2="15" y2="15"/>
  </symbol>
  
  <symbol id="alert-triangle" viewBox="0 0 24 24" fill="none" stroke="currentColor" stroke-width="2">
    <path d="M10.29 3.86L1.82 18a2 2 0 0 0 1.71 3h16.94a2 2 0 0 0 1.71-3L13.71 3.86a2 2 0 0 0-3.42 0z"/>
    <line x1="12" y1="9" x2="12" y2="13"/>
    <line x1="12" y1="17" x2="12.01" y2="17"/>
  </symbol>
  
  <symbol id="info-circle" viewBox="0 0 24 24" fill="none" stroke="currentColor" stroke-width="2">
    <circle cx="12" cy="12" r="10"/>
    <line x1="12" y1="16" x2="12" y2="12"/>
    <line x1="12" y1="8" x2="12.01" y2="8"/>
  </symbol>
  
  <!-- About Page Icons -->
  <symbol id="eye" viewBox="0 0 24 24" fill="none" stroke="currentColor" stroke-width="2">
    <path d="M1 12s4-8 11-8 11 8 11 8-4 8-11 8-11-8-11-8z"/>
    <circle cx="12" cy="12" r="3"/>
  </symbol>
  
  <symbol id="target" viewBox="0 0 24 24" fill="none" stroke="currentColor" stroke-width="2">
    <circle cx="12" cy="12" r="10"/>
    <circle cx="12" cy="12" r="6"/>
    <circle cx="12" cy="12" r="2"/>
  </symbol>
  
  <symbol id="lightbulb" viewBox="0 0 24 24" fill="none" stroke="currentColor" stroke-width="2">
    <path d="M9 21h6"/>
    <path d="M12 17v4"/>
    <path d="M12 3a6 6 0 0 1 6 6c0 3-2 3-2 3H8s-2 0-2-3a6 6 0 0 1 6-6z"/>
  </symbol>
  
  <!-- Utility Icons -->
  <symbol id="calendar" viewBox="0 0 24 24" fill="none" stroke="currentColor" stroke-width="2">
    <rect x="3" y="4" width="18" height="18" rx="2" ry="2"/>
    <line x1="16" y1="2" x2="16" y2="6"/>
    <line x1="8" y1="2" x2="8" y2="6"/>
    <line x1="3" y1="10" x2="21" y2="10"/>
  </symbol>
  
  <symbol id="map" viewBox="0 0 24 24" fill="none" stroke="currentColor" stroke-width="2">
    <polygon points="1,6 1,22 8,18 16,22 23,18 23,2 16,6 8,2"/>
    <line x1="8" y1="2" x2="8" y2="18"/>
    <line x1="16" y1="6" x2="16" y2="22"/>
  </symbol>
  
  <symbol id="file" viewBox="0 0 24 24" fill="none" stroke="currentColor" stroke-width="2">
    <path d="M14,2H6A2,2 0 0,0 4,4V20A2,2 0 0,0 6,22H18A2,2 0 0,0 20,20V8L14,2Z"/>
    <polyline points="14,2 14,8 20,8"/>
    <line x1="16" y1="13" x2="8" y2="13"/>
    <line x1="16" y1="17" x2="8" y2="17"/>
    <polyline points="10,9 9,9 8,9"/>
  </symbol>
  
  <symbol id="download" viewBox="0 0 24 24" fill="none" stroke="currentColor" stroke-width="2">
    <path d="M21 15v4a2 2 0 0 1-2 2H5a2 2 0 0 1-2-2v-4"/>
    <polyline points="7,10 12,15 17,10"/>
    <line x1="12" y1="15" x2="12" y2="3"/>
  </symbol>
  
  <symbol id="share" viewBox="0 0 24 24" fill="none" stroke="currentColor" stroke-width="2">
    <circle cx="18" cy="5" r="3"/>
    <circle cx="6" cy="12" r="3"/>
    <circle cx="18" cy="19" r="3"/>
    <line x1="8.59" y1="13.51" x2="15.42" y2="17.49"/>
    <line x1="15.41" y1="6.51" x2="8.59" y2="10.49"/>
  </symbol>
  
  <symbol id="external-link" viewBox="0 0 24 24" fill="none" stroke="currentColor" stroke-width="2">
    <path d="M18 13v6a2 2 0 0 1-2 2H5a2 2 0 0 1-2-2V8a2 2 0 0 1 2-2h6"/>
    <polyline points="15,3 21,3 21,9"/>
    <line x1="10" y1="14" x2="21" y2="3"/>
  </symbol>
  
  <!-- Blog Icons -->
  <symbol id="book" viewBox="0 0 24 24" fill="none" stroke="currentColor" stroke-width="2">
    <path d="M4 19.5A2.5 2.5 0 0 1 6.5 17H20"/>
    <path d="M6.5 2H20v20H6.5A2.5 2.5 0 0 1 4 19.5v-15A2.5 2.5 0 0 1 6.5 2z"/>
  </symbol>
  
  <symbol id="edit" viewBox="0 0 24 24" fill="none" stroke="currentColor" stroke-width="2">
    <path d="M17 3a2.85 2.85 0 1 1 4 4L7.5 20.5 2 22l1.5-5.5Z"/>
    <path d="m15 5 4 4"/>
  </symbol>
  
  <symbol id="tag" viewBox="0 0 24 24" fill="none" stroke="currentColor" stroke-width="2">
    <path d="M20.59 13.41l-7.17 7.17a2 2 0 0 1-2.83 0L2 12V2h10l8.59 8.59a2 2 0 0 1 0 2.82z"/>
    <line x1="7" y1="7" x2="7.01" y2="7"/>
  </symbol>
  
  <symbol id="clock" viewBox="0 0 24 24" fill="none" stroke="currentColor" stroke-width="2">
    <circle cx="12" cy="12" r="10"/>
    <polyline points="12,6 12,12 16,14"/>
  </symbol>
  
  <!-- Filter Icons -->
  <symbol id="filter" viewBox="0 0 24 24" fill="none" stroke="currentColor" stroke-width="2">
    <polygon points="22,3 2,3 10,12.46 10,19 14,21 14,12.46"/>
  </symbol>
  
  <symbol id="sort" viewBox="0 0 24 24" fill="none" stroke="currentColor" stroke-width="2">
    <path d="M3 6h18"/>
    <path d="M7 12h10"/>
    <path d="M10 18h4"/>
  </symbol>
  
  <!-- Media Icons -->
  <symbol id="play" viewBox="0 0 24 24" fill="none" stroke="currentColor" stroke-width="2">
    <polygon points="5,3 19,12 5,21"/>
  </symbol>
  
  <symbol id="pause" viewBox="0 0 24 24" fill="none" stroke="currentColor" stroke-width="2">
    <rect x="6" y="4" width="4" height="16"/>
    <rect x="14" y="4" width="4" height="16"/>
  </symbol>
  
  <symbol id="image" viewBox="0 0 24 24" fill="none" stroke="currentColor" stroke-width="2">
    <rect x="3" y="3" width="18" height="18" rx="2" ry="2"/>
    <circle cx="8.5" cy="8.5" r="1.5"/>
    <polyline points="21,15 16,10 5,21"/>
  </symbol>
  
  <!-- GitHub and Development Icons -->
  <symbol id="github" viewBox="0 0 24 24" fill="currentColor">
    <path d="M12 0c-6.626 0-12 5.373-12 12 0 5.302 3.438 9.8 8.207 11.387.599.111.793-.261.793-.577v-2.234c-3.338.726-4.033-1.416-4.033-1.416-.546-1.387-1.333-1.756-1.333-1.756-1.089-.745.083-.729.083-.729 1.205.084 1.839 1.237 1.839 1.237 1.07 1.834 2.807 1.304 3.492.997.107-.775.418-1.305.762-1.604-2.665-.305-5.467-1.334-5.467-5.931 0-1.311.469-2.381 1.236-3.221-.124-.303-.535-1.524.117-3.176 0 0 1.008-.322 3.301 1.23.957-.266 1.983-.399 3.003-.404 1.02.005 2.047.138 3.006.404 2.291-1.552 3.297-1.23 3.297-1.23.653 1.653.242 2.874.118 3.176.77.84 1.235 1.911 1.235 3.221 0 4.609-2.807 5.624-5.479 5.921.43.372.823 1.102.823 2.222v3.293c0 .319.192.694.801.576 4.765-1.589 8.199-6.086 8.199-11.386 0-6.627-5.373-12-12-12z"/>
  </symbol>
  
  <!-- Additional Utility Icons -->
  <symbol id="star" viewBox="0 0 24 24" fill="none" stroke="currentColor" stroke-width="2">
    <polygon points="12,2 15.09,8.26 22,9.27 17,14.14 18.18,21.02 12,17.77 5.82,21.02 7,14.14 2,9.27 8.91,8.26"/>
  </symbol>
  
  <symbol id="bookmark" viewBox="0 0 24 24" fill="none" stroke="currentColor" stroke-width="2">
    <path d="M19 21l-7-5-7 5V5a2 2 0 0 1 2-2h10a2 2 0 0 1 2 2z"/>
  </symbol>
  
  <symbol id="settings" viewBox="0 0 24 24" fill="none" stroke="currentColor" stroke-width="2">
    <circle cx="12" cy="12" r="3"/>
    <path d="M19.4 15a1.65 1.65 0 0 0 .33 1.82l.06.06a2 2 0 0 1 0 2.83 2 2 0 0 1-2.83 0l-.06-.06a1.65 1.65 0 0 0-1.82-.33 1.65 1.65 0 0 0-1 1.51V21a2 2 0 0 1-2 2 2 2 0 0 1-2-2v-.09A1.65 1.65 0 0 0 9 19.4a1.65 1.65 0 0 0-1.82.33l-.06.06a2 2 0 0 1-2.83 0 2 2 0 0 1 0-2.83l.06-.06a1.65 1.65 0 0 0 .33-1.82 1.65 1.65 0 0 0-1.51-1H3a2 2 0 0 1-2-2 2 2 0 0 1 2-2h.09A1.65 1.65 0 0 0 4.6 9a1.65 1.65 0 0 0-.33-1.82l-.06-.06a2 2 0 0 1 0-2.83 2 2 0 0 1 2.83 0l.06.06a1.65 1.65 0 0 0 1.82.33H9a1.65 1.65 0 0 0 1-1.51V3a2 2 0 0 1 2-2 2 2 0 0 1 2 2v.09a1.65 1.65 0 0 0 1 1.51 1.65 1.65 0 0 0 1.82-.33l.06-.06a2 2 0 0 1 2.83 0 2 2 0 0 1 0 2.83l-.06.06a1.65 1.65 0 0 0-.33 1.82V9a1.65 1.65 0 0 0 1.51 1H21a2 2 0 0 1 2 2 2 2 0 0 1-2 2h-.09a1.65 1.65 0 0 0-1.51 1z"/>
  </symbol>
  
  <symbol id="plus" viewBox="0 0 24 24" fill="none" stroke="currentColor" stroke-width="2">
    <line x1="12" y1="5" x2="12" y2="19"/>
    <line x1="5" y1="12" x2="19" y2="12"/>
  </symbol>
  
  <symbol id="minus" viewBox="0 0 24 24" fill="none" stroke="currentColor" stroke-width="2">
    <line x1="5" y1="12" x2="19" y2="12"/>
  </symbol>
  
  <symbol id="home" viewBox="0 0 24 24" fill="none" stroke="currentColor" stroke-width="2">
    <path d="M3 9l9-7 9 7v11a2 2 0 0 1-2 2H5a2 2 0 0 1-2-2z"/>
    <polyline points="9,22 9,12 15,12 15,22"/>
  </symbol>
  
  <!-- Impact and Stats Icons -->
  <symbol id="trending-up" viewBox="0 0 24 24" fill="none" stroke="currentColor" stroke-width="2">
    <polyline points="22,7 13.5,15.5 8.5,10.5 2,17"/>
    <polyline points="16,7 22,7 22,13"/>
  </symbol>
  
  <symbol id="award" viewBox="0 0 24 24" fill="none" stroke="currentColor" stroke-width="2">
    <circle cx="12" cy="8" r="7"/>
    <polyline points="8.21,13.89 7,23 12,20 17,23 15.79,13.88"/>
  </symbol>
  
  <symbol id="globe-2" viewBox="0 0 24 24" fill="none" stroke="currentColor" stroke-width="2">
    <path d="M21.54 15H17a2 2 0 0 0-2 2v4.54"/>
    <path d="M7 3.34V5a3 3 0 0 0 3 3v0a2 2 0 0 1 2 2v0c0 1.1.9 2 2 2a2 2 0 0 0 2-2c0-1.1.9-2 2-2h3.17"/>
    <path d="M11 21.95V18a2 2 0 0 0-2-2v0a2 2 0 0 1-2-2v-1a2 2 0 0 0-2-2H2.05"/>
    <circle cx="12" cy="12" r="10"/>
  </symbol>
  
  <!-- Additional Icons for Members Page -->
  <symbol id="user" viewBox="0 0 24 24" fill="none" stroke="currentColor" stroke-width="2">
    <path d="M20 21v-2a4 4 0 0 0-4-4H8a4 4 0 0 0-4 4v2"/>
    <circle cx="12" cy="7" r="4"/>
  </symbol>
  
  <symbol id="briefcase" viewBox="0 0 24 24" fill="none" stroke="currentColor" stroke-width="2">
    <rect x="2" y="7" width="20" height="14" rx="2" ry="2"/>
    <path d="M16 21V5a2 2 0 0 0-2-2h-4a2 2 0 0 0-2 2v16"/>
  </symbol>
  
  <symbol id="graduation-cap" viewBox="0 0 24 24" fill="none" stroke="currentColor" stroke-width="2">
    <path d="M22 10v6M2 10l10-5 10 5-10 5z"/>
    <path d="M6 12v5c3 3 9 3 12 0v-5"/>
  </symbol>
  
  <!-- Social Platform Icons -->
  <symbol id="behance" viewBox="0 0 24 24" fill="currentColor">
    <path d="M6.938 4.503c.702 0 1.34.06 1.92.188.577.13 1.07.33 1.485.61.41.28.733.65.96 1.12.225.47.34 1.05.34 1.73 0 .74-.17 1.36-.507 1.86-.338.5-.837.9-1.502 1.22.906.26 1.576.72 2.022 1.37.448.66.672 1.44.672 2.35 0 .75-.13 1.39-.41 1.93-.28.55-.67 1-1.16 1.35-.48.348-1.05.6-1.69.76-.64.16-1.34.24-2.09.24H0V4.51h6.938v-.007zM3.495 8.42h2.876c.76 0 1.397-.22 1.916-.66.52-.44.78-1.08.78-1.92 0-.48-.115-.89-.346-1.23-.23-.34-.55-.6-.94-.78-.39-.18-.85-.27-1.36-.27H3.495v4.86zm0 7.17h3.908c.48 0 .91-.05 1.295-.16.385-.11.72-.27.99-.48.27-.21.48-.48.63-.81.15-.33.23-.71.23-1.14 0-.95-.33-1.65-1-2.09-.67-.44-1.605-.66-2.81-.66H3.495v5.35zm13.03-11.22c.5-.12 1.11-.177 1.83-.177 1.12 0 2.12.317 2.99.95.87.635 1.3 1.54 1.3 2.72 0 .56-.115 1.043-.345 1.45-.23.41-.55.73-.96.97.57.255 1.02.65 1.34 1.184.32.535.48 1.19.48 1.96 0 .64-.13 1.18-.39 1.62-.26.44-.62.78-1.08 1.02-.46.24-.99.39-1.59.45-.6.06-1.25.09-1.95.09h-5.05V4.51h2.90l.03.38zm.45 4.28c.23-.32.345-.74.345-1.26 0-.58-.18-1.02-.54-1.32-.36-.3-.87-.45-1.53-.45-.34 0-.68.04-1.02.12-.34.08-.63.21-.87.39-.24.18-.43.42-.57.72-.14.3-.21.66-.21 1.08h4.41c0-.52.115-.96.345-1.28z"/>
  </symbol>
  
  <symbol id="dribbble" viewBox="0 0 24 24" fill="currentColor">
    <circle cx="12" cy="12" r="10"/>
    <path d="M8.56 2.75c4.37 6.03 6.02 9.42 8.03 17.72m2.54-15.38c-3.72 4.35-8.94 5.66-16.88 5.85m19.5 1.9c-3.5-.93-6.63-.82-8.94 0-2.58.92-5.01 2.86-7.44 6.32"/>
  </symbol>
  
  <symbol id="portfolio" viewBox="0 0 24 24" fill="none" stroke="currentColor" stroke-width="2">
    <rect x="2" y="7" width="20" height="14" rx="2" ry="2"/>
    <path d="M16 21V5a2 2 0 0 0-2-2h-4a2 2 0 0 0-2 2v16"/>
    <line x1="6" y1="11" x2="18" y2="11"/>
  </symbol>
  
  <!-- Loading and Status Icons -->
  <symbol id="loader" viewBox="0 0 24 24" fill="none" stroke="currentColor" stroke-width="2">
    <line x1="12" y1="2" x2="12" y2="6"/>
    <line x1="12" y1="18" x2="12" y2="22"/>
    <line x1="4.93" y1="4.93" x2="7.76" y2="7.76"/>
    <line x1="16.24" y1="16.24" x2="19.07" y2="19.07"/>
    <line x1="2" y1="12" x2="6" y2="12"/>
    <line x1="18" y1="12" x2="22" y2="12"/>
    <line x1="4.93" y1="19.07" x2="7.76" y2="16.24"/>
    <line x1="16.24" y1="7.76" x2="19.07" y2="4.93"/>
  </symbol>
  
  <symbol id="refresh" viewBox="0 0 24 24" fill="none" stroke="currentColor" stroke-width="2">
    <polyline points="23,4 23,10 17,10"/>
    <polyline points="1,20 1,14 7,14"/>
    <path d="M20.49 9A9 9 0 0 0 5.64 5.64L1 10m22 4l-4.64 4.36A9 9 0 0 1 3.51 15"/>
  </symbol>
  
  <symbol id="wifi-off" viewBox="0 0 24 24" fill="none" stroke="currentColor" stroke-width="2">
    <line x1="1" y1="1" x2="23" y2="23"/>
    <path d="M16.72 11.06A10.94 10.94 0 0 1 19 12.55"/>
    <path d="M5 12.55a10.94 10.94 0 0 1 5.17-2.39"/>
    <path d="M10.71 5.05A16 16 0 0 1 22.58 9"/>
    <path d="M1.42 9a15.91 15.91 0 0 1 4.7-2.88"/>
    <path d="M8.53 16.11a6 6 0 0 1 6.95 0"/>
    <line x1="12" y1="20" x2="12.01" y2="20"/>
  </symbol>
</svg>
